G04*
G04 #@! TF.GenerationSoftware,Altium Limited,Altium Designer,20.2.4 (192)*
G04*
G04 Layer_Color=2752767*
%FSLAX25Y25*%
%MOIN*%
G70*
G04*
G04 #@! TF.SameCoordinates,C5831E6D-2EEE-4114-93DC-BC8679F25CA8*
G04*
G04*
G04 #@! TF.FilePolarity,Positive*
G04*
G01*
G75*
%ADD46C,0.00200*%
%ADD47C,0.00267*%
D46*
X319700Y279700D02*
Y281300D01*
X321300D01*
Y279700D01*
X319700D01*
X327200Y132200D02*
Y133800D01*
X328800D01*
Y132200D01*
X327200D01*
X337200D02*
Y133800D01*
X338800D01*
Y132200D01*
X337200D01*
X347200D02*
Y133800D01*
X348800D01*
Y132200D01*
X347200D01*
X357200D02*
Y133800D01*
X358800D01*
Y132200D01*
X357200D01*
X337063Y207708D02*
X336263Y209308D01*
X337863D01*
X337063Y207708D01*
X331157D02*
X330358Y209308D01*
X331958D01*
X331157Y207708D01*
Y213613D02*
X330358Y215213D01*
X331958D01*
X331157Y213613D01*
X337063D02*
X336263Y215213D01*
X337863D01*
X337063Y213613D01*
X342969D02*
X342168Y215213D01*
X343769D01*
X342969Y213613D01*
Y207708D02*
X342168Y209308D01*
X343769D01*
X342969Y207708D01*
Y201802D02*
X342168Y203402D01*
X343769D01*
X342969Y201802D01*
X337063D02*
X336263Y203402D01*
X337863D01*
X337063Y201802D01*
X331157D02*
X330358Y203402D01*
X331958D01*
X331157Y201802D01*
D47*
X325300Y223000D02*
G03*
X325300Y223000I-800J0D01*
G01*
X342800Y278000D02*
G03*
X342800Y278000I-800J0D01*
G01*
X345300Y224000D02*
G03*
X345300Y224000I-800J0D01*
G01*
X340225Y192575D02*
G03*
X340225Y192575I-800J0D01*
G01*
X321800Y217000D02*
G03*
X321800Y217000I-800J0D01*
G01*
Y213102D02*
G03*
X321800Y213102I-800J0D01*
G01*
X325300Y261000D02*
G03*
X325300Y261000I-800J0D01*
G01*
X340800Y224500D02*
G03*
X340800Y224500I-800J0D01*
G01*
X331800Y183000D02*
G03*
X331800Y183000I-800J0D01*
G01*
X339800Y188500D02*
G03*
X339800Y188500I-800J0D01*
G01*
X335300Y191500D02*
G03*
X335300Y191500I-800J0D01*
G01*
X344300Y258401D02*
G03*
X344300Y258401I-800J0D01*
G01*
X335501Y226299D02*
G03*
X335501Y226299I-800J0D01*
G01*
X322300Y193000D02*
G03*
X322300Y193000I-800J0D01*
G01*
X325800Y151000D02*
G03*
X325800Y151000I-800J0D01*
G01*
X343300Y176500D02*
G03*
X343300Y176500I-800J0D01*
G01*
X356056Y186500D02*
G03*
X356056Y186500I-800J0D01*
G01*
X362300Y172500D02*
G03*
X362300Y172500I-800J0D01*
G01*
X349800Y176500D02*
G03*
X349800Y176500I-800J0D01*
G01*
X333800Y174468D02*
G03*
X333800Y174468I-800J0D01*
G01*
X334300Y179500D02*
G03*
X334300Y179500I-800J0D01*
G01*
X333300Y170500D02*
G03*
X333300Y170500I-800J0D01*
G01*
X329300Y240500D02*
G03*
X329300Y240500I-800J0D01*
G01*
X321800Y243000D02*
G03*
X321800Y243000I-800J0D01*
G01*
X355852Y211551D02*
G03*
X355852Y211551I-800J0D01*
G01*
X358800Y209000D02*
G03*
X358800Y209000I-800J0D01*
G01*
X357300Y197500D02*
G03*
X357300Y197500I-800J0D01*
G01*
X359800Y201500D02*
G03*
X359800Y201500I-800J0D01*
G01*
X362300Y206500D02*
G03*
X362300Y206500I-800J0D01*
G01*
M02*
