G04*
G04 #@! TF.GenerationSoftware,Altium Limited,Altium Designer,20.2.4 (192)*
G04*
G04 Layer_Color=8388736*
%FSLAX25Y25*%
%MOIN*%
G70*
G04*
G04 #@! TF.SameCoordinates,C5831E6D-2EEE-4114-93DC-BC8679F25CA8*
G04*
G04*
G04 #@! TF.FilePolarity,Negative*
G04*
G01*
G75*
%ADD22R,0.04737X0.02178*%
%ADD23R,0.02178X0.04737*%
%ADD24R,0.04698X0.03871*%
%ADD25R,0.04816X0.03320*%
%ADD26R,0.07296X0.03556*%
%ADD27R,0.21272X0.21272*%
%ADD28O,0.02965X0.01587*%
%ADD29O,0.01587X0.02965*%
%ADD30R,0.04343X0.03950*%
%ADD31C,0.06800*%
%ADD32C,0.02800*%
%ADD33C,0.03800*%
D22*
X337028Y280500D02*
D03*
X327972D02*
D03*
D23*
X335059Y276957D02*
D03*
X332500D02*
D03*
X329941D02*
D03*
Y284043D02*
D03*
X332500D02*
D03*
X335059D02*
D03*
D24*
X325000Y271000D02*
D03*
Y265488D02*
D03*
X331500Y271000D02*
D03*
Y265488D02*
D03*
X338000Y271000D02*
D03*
Y265488D02*
D03*
X344500Y271000D02*
D03*
Y265488D02*
D03*
X330500Y151756D02*
D03*
Y146244D02*
D03*
X352500Y253756D02*
D03*
Y248244D02*
D03*
X339500Y237500D02*
D03*
Y231988D02*
D03*
X346000Y253756D02*
D03*
Y248244D02*
D03*
X339000Y253756D02*
D03*
Y248244D02*
D03*
X346000Y237500D02*
D03*
Y231988D02*
D03*
X352500Y237500D02*
D03*
Y231988D02*
D03*
X351000Y271000D02*
D03*
Y265488D02*
D03*
X357000Y188244D02*
D03*
Y193756D02*
D03*
D25*
X325500Y248480D02*
D03*
Y253520D02*
D03*
Y237520D02*
D03*
Y232480D02*
D03*
D26*
X327327Y163000D02*
D03*
Y168000D02*
D03*
Y173000D02*
D03*
Y178000D02*
D03*
X355673D02*
D03*
Y173000D02*
D03*
Y168000D02*
D03*
Y163000D02*
D03*
D27*
X337063Y208508D02*
D03*
D28*
X325055Y198272D02*
D03*
Y199846D02*
D03*
Y201421D02*
D03*
Y202996D02*
D03*
Y204571D02*
D03*
Y206146D02*
D03*
Y207720D02*
D03*
Y209295D02*
D03*
Y210870D02*
D03*
Y212445D02*
D03*
Y214020D02*
D03*
Y215595D02*
D03*
Y217169D02*
D03*
Y218744D02*
D03*
X349071D02*
D03*
Y217169D02*
D03*
Y215595D02*
D03*
Y214020D02*
D03*
Y212445D02*
D03*
Y210870D02*
D03*
Y209295D02*
D03*
Y207720D02*
D03*
Y206146D02*
D03*
Y204571D02*
D03*
Y202996D02*
D03*
Y201421D02*
D03*
Y199846D02*
D03*
Y198272D02*
D03*
D29*
X328402Y220516D02*
D03*
X329976D02*
D03*
X331551D02*
D03*
X333126D02*
D03*
X334701D02*
D03*
X336276D02*
D03*
X337850D02*
D03*
X339425D02*
D03*
X341000D02*
D03*
X342575D02*
D03*
X344150D02*
D03*
X345724D02*
D03*
Y196500D02*
D03*
X344150D02*
D03*
X342575D02*
D03*
X341000D02*
D03*
X339425D02*
D03*
X337850D02*
D03*
X336276D02*
D03*
X334701D02*
D03*
X333126D02*
D03*
X331551D02*
D03*
X329976D02*
D03*
X328402D02*
D03*
D30*
X352248Y145539D02*
D03*
X345752D02*
D03*
Y150461D02*
D03*
X352248D02*
D03*
D31*
X320500Y280500D02*
D03*
X328000Y133000D02*
D03*
X338000D02*
D03*
X348000D02*
D03*
X358000D02*
D03*
D32*
X324500Y223000D02*
D03*
X342000Y278000D02*
D03*
X344500Y224000D02*
D03*
X339425Y192575D02*
D03*
X321000Y217000D02*
D03*
Y213102D02*
D03*
X324500Y261000D02*
D03*
X340000Y224500D02*
D03*
X331000Y183000D02*
D03*
X339000Y188500D02*
D03*
X334500Y191500D02*
D03*
X343500Y258401D02*
D03*
X334701Y226299D02*
D03*
X321500Y193000D02*
D03*
X325000Y151000D02*
D03*
X342500Y176500D02*
D03*
X355256Y186500D02*
D03*
X361500Y172500D02*
D03*
X349000Y176500D02*
D03*
X333000Y174468D02*
D03*
X333500Y179500D02*
D03*
X332500Y170500D02*
D03*
X328500Y240500D02*
D03*
X321000Y243000D02*
D03*
X355051Y211551D02*
D03*
X358000Y209000D02*
D03*
X356500Y197500D02*
D03*
X359000Y201500D02*
D03*
X361500Y206500D02*
D03*
D33*
X337063Y208508D02*
D03*
X331157D02*
D03*
Y214413D02*
D03*
X337063D02*
D03*
X342969D02*
D03*
Y208508D02*
D03*
Y202602D02*
D03*
X337063D02*
D03*
X331157D02*
D03*
M02*
