G04*
G04 #@! TF.GenerationSoftware,Altium Limited,Altium Designer,20.2.4 (192)*
G04*
G04 Layer_Color=65535*
%FSLAX25Y25*%
%MOIN*%
G70*
G04*
G04 #@! TF.SameCoordinates,C5831E6D-2EEE-4114-93DC-BC8679F25CA8*
G04*
G04*
G04 #@! TF.FilePolarity,Positive*
G04*
G01*
G75*
%ADD40C,0.00394*%
%ADD41C,0.00197*%
%ADD42C,0.00787*%
D40*
X323406Y265094D02*
X326594D01*
Y271394D01*
X323406D02*
X326594D01*
X323406Y265094D02*
Y271394D01*
X322114Y246039D02*
X328886D01*
X322114D02*
Y255961D01*
X328886D01*
Y246039D02*
Y255961D01*
X346894Y160205D02*
X351894Y165205D01*
Y160205D02*
Y180795D01*
X331106D02*
X351894D01*
X331106Y160205D02*
Y180795D01*
Y160205D02*
X351894D01*
X329906Y265094D02*
X333094D01*
Y271394D01*
X329906D02*
X333094D01*
X329906Y265094D02*
Y271394D01*
X336406Y265094D02*
X339594D01*
Y271394D01*
X336406D02*
X339594D01*
X336406Y265094D02*
Y271394D01*
X342906Y265094D02*
X346094D01*
Y271394D01*
X342906D02*
X346094D01*
X342906Y265094D02*
Y271394D01*
X328906Y145850D02*
X332094D01*
Y152150D01*
X328906D02*
X332094D01*
X328906Y145850D02*
Y152150D01*
X350906Y247850D02*
X354094D01*
Y254150D01*
X350906D02*
X354094D01*
X350906Y247850D02*
Y254150D01*
X337906Y231594D02*
X341094D01*
Y237894D01*
X337906D02*
X341094D01*
X337906Y231594D02*
Y237894D01*
X344406Y247850D02*
X347594D01*
Y254150D01*
X344406D02*
X347594D01*
X344406Y247850D02*
Y254150D01*
X337406Y247850D02*
X340594D01*
Y254150D01*
X337406D02*
X340594D01*
X337406Y247850D02*
Y254150D01*
X328886Y230039D02*
Y239961D01*
X322114D02*
X328886D01*
X322114Y230039D02*
Y239961D01*
Y230039D02*
X328886D01*
X344406Y231594D02*
X347594D01*
Y237894D01*
X344406D02*
X347594D01*
X344406Y231594D02*
Y237894D01*
X350906Y231594D02*
X354094D01*
Y237894D01*
X350906D02*
X354094D01*
X350906Y231594D02*
Y237894D01*
X349406Y265094D02*
X352594D01*
Y271394D01*
X349406D02*
X352594D01*
X349406Y265094D02*
Y271394D01*
X355406Y194150D02*
X358594D01*
X355406Y187850D02*
Y194150D01*
Y187850D02*
X358594D01*
Y194150D01*
X358449Y141996D02*
Y154004D01*
X342012D02*
X358449D01*
X342012Y141996D02*
Y154004D01*
Y141996D02*
X358449D01*
D41*
X322441Y263362D02*
X327559D01*
Y273126D01*
X322441D02*
X327559D01*
X322441Y263362D02*
Y273126D01*
X359906Y159024D02*
Y181976D01*
X323094D02*
X359906D01*
X323094Y159024D02*
Y181976D01*
Y159024D02*
X359906D01*
X328941Y263362D02*
X334059D01*
Y273126D01*
X328941D02*
X334059D01*
X328941Y263362D02*
Y273126D01*
X335441Y263362D02*
X340559D01*
Y273126D01*
X335441D02*
X340559D01*
X335441Y263362D02*
Y273126D01*
X341941Y263362D02*
X347059D01*
Y273126D01*
X341941D02*
X347059D01*
X341941Y263362D02*
Y273126D01*
X327941Y144118D02*
X333059D01*
Y153882D01*
X327941D02*
X333059D01*
X327941Y144118D02*
Y153882D01*
X349941Y246118D02*
X355059D01*
Y255882D01*
X349941D02*
X355059D01*
X349941Y246118D02*
Y255882D01*
X336941Y229862D02*
X342059D01*
Y239626D01*
X336941D02*
X342059D01*
X336941Y229862D02*
Y239626D01*
X343441Y246118D02*
X348559D01*
Y255882D01*
X343441D02*
X348559D01*
X343441Y246118D02*
Y255882D01*
X336441Y246118D02*
X341559D01*
Y255882D01*
X336441D02*
X341559D01*
X336441Y246118D02*
Y255882D01*
X343441Y229862D02*
X348559D01*
Y239626D01*
X343441D02*
X348559D01*
X343441Y229862D02*
Y239626D01*
X349941Y229862D02*
X355059D01*
Y239626D01*
X349941D02*
X355059D01*
X349941Y229862D02*
Y239626D01*
X348441Y263362D02*
X353559D01*
Y273126D01*
X348441D02*
X353559D01*
X348441Y263362D02*
Y273126D01*
X354441Y195882D02*
X359559D01*
X354441Y186118D02*
Y195882D01*
Y186118D02*
X359559D01*
Y195882D01*
D42*
X323295Y247457D02*
X327705D01*
X323295D02*
Y254543D01*
X327705D01*
Y247457D02*
Y254543D01*
Y231457D02*
Y238543D01*
X323295D02*
X327705D01*
X323295Y231457D02*
Y238543D01*
Y231457D02*
X327705D01*
X353921Y144063D02*
Y151937D01*
X344079D02*
X353921D01*
X344079Y144063D02*
Y151937D01*
Y144063D02*
X353921D01*
M02*
