M48
;Layer_Color=9474304
;FILE_FORMAT=2:5
INCH,LZ
;TYPE=PLATED
T1F00S00C0.01181
T2F00S00C0.01600
T3F00S00C0.03000
%
T01
X0325Y0151
X03325Y01705
X0333Y0174468
X03335Y01795
X0331Y0183
X03345Y01915
X0339425Y0192575
X0339Y01885
X03425Y01765
X0349
X0355256Y01865
X03565Y01975
X0359Y02015
X03615Y02065
X0358Y0209
X0355051Y0211551
X03445Y0224
X034Y02245
X0334701Y0226299
X03245Y0223
X0321Y0217
Y0213102
X03215Y0193
X0321Y0243
X03285Y02405
X03245Y0261
X03435Y0258401
X0342Y0278
X03615Y01725
T02
X0331157Y0202602
Y0208508
X0337063
Y0214413
X0331157
X0342969
Y0208508
Y0202602
X0337063
T03
X0328Y0133
X0338
X0348
X0358
X03205Y02805
M30
