G04*
G04 #@! TF.GenerationSoftware,Altium Limited,Altium Designer,20.2.4 (192)*
G04*
G04 Layer_Color=128*
%FSLAX25Y25*%
%MOIN*%
G70*
G04*
G04 #@! TF.SameCoordinates,C5831E6D-2EEE-4114-93DC-BC8679F25CA8*
G04*
G04*
G04 #@! TF.FilePolarity,Positive*
G04*
G01*
G75*
%ADD46C,0.00200*%
D46*
X319000Y280500D02*
X322000D01*
X320500Y279000D02*
Y282000D01*
X326500Y133000D02*
X329500D01*
X328000Y131500D02*
Y134500D01*
X336500Y133000D02*
X339500D01*
X338000Y131500D02*
Y134500D01*
X346500Y133000D02*
X349500D01*
X348000Y131500D02*
Y134500D01*
X356500Y133000D02*
X359500D01*
X358000Y131500D02*
Y134500D01*
X323909Y223000D02*
X325091D01*
X324500Y222410D02*
Y223590D01*
X341409Y278000D02*
X342590D01*
X342000Y277410D02*
Y278590D01*
X343910Y224000D02*
X345091D01*
X344500Y223410D02*
Y224590D01*
X338835Y192575D02*
X340016D01*
X339425Y191984D02*
Y193165D01*
X320409Y217000D02*
X321590D01*
X321000Y216409D02*
Y217590D01*
X320409Y213102D02*
X321590D01*
X321000Y212511D02*
Y213692D01*
X323909Y261000D02*
X325091D01*
X324500Y260409D02*
Y261591D01*
X339409Y224500D02*
X340591D01*
X340000Y223909D02*
Y225091D01*
X330410Y183000D02*
X331591D01*
X331000Y182409D02*
Y183591D01*
X338409Y188500D02*
X339591D01*
X339000Y187909D02*
Y189091D01*
X333910Y191500D02*
X335090D01*
X334500Y190909D02*
Y192091D01*
X342910Y258401D02*
X344091D01*
X343500Y257811D02*
Y258992D01*
X334110Y226299D02*
X335291D01*
X334701Y225709D02*
Y226890D01*
X320910Y193000D02*
X322091D01*
X321500Y192409D02*
Y193591D01*
X324410Y151000D02*
X325590D01*
X325000Y150409D02*
Y151591D01*
X341910Y176500D02*
X343091D01*
X342500Y175909D02*
Y177091D01*
X354665Y186500D02*
X355847D01*
X355256Y185909D02*
Y187091D01*
X360910Y172500D02*
X362090D01*
X361500Y171909D02*
Y173091D01*
X348410Y176500D02*
X349590D01*
X349000Y175909D02*
Y177091D01*
X332410Y174468D02*
X333591D01*
X333000Y173877D02*
Y175058D01*
X332909Y179500D02*
X334090D01*
X333500Y178909D02*
Y180091D01*
X331909Y170500D02*
X333090D01*
X332500Y169909D02*
Y171091D01*
X327909Y240500D02*
X329090D01*
X328500Y239910D02*
Y241090D01*
X320409Y243000D02*
X321590D01*
X321000Y242409D02*
Y243590D01*
X354461Y211551D02*
X355642D01*
X355051Y210961D02*
Y212142D01*
X357410Y209000D02*
X358591D01*
X358000Y208410D02*
Y209591D01*
X355909Y197500D02*
X357090D01*
X356500Y196909D02*
Y198091D01*
X358410Y201500D02*
X359591D01*
X359000Y200909D02*
Y202091D01*
X360910Y206500D02*
X362090D01*
X361500Y205909D02*
Y207090D01*
X336263Y208508D02*
X337863D01*
X337063Y207708D02*
Y209308D01*
X330358Y208508D02*
X331958D01*
X331157Y207708D02*
Y209308D01*
X330358Y214413D02*
X331958D01*
X331157Y213613D02*
Y215213D01*
X336263Y214413D02*
X337863D01*
X337063Y213613D02*
Y215213D01*
X342168Y214413D02*
X343769D01*
X342969Y213613D02*
Y215213D01*
X342168Y208508D02*
X343769D01*
X342969Y207708D02*
Y209308D01*
X342168Y202602D02*
X343769D01*
X342969Y201802D02*
Y203402D01*
X336263Y202602D02*
X337863D01*
X337063Y201802D02*
Y203402D01*
X330358Y202602D02*
X331958D01*
X331157Y201802D02*
Y203402D01*
M02*
